grf
version=1
nRows=9
nColumns=37
inDegrees=no
endheader
time	ground_force_1_vx	ground_force_1_vy	ground_force_1_vz	ground_force_1_px	ground_force_1_py	ground_force_1_pz	ground_moment_1_mx	ground_moment_1_my	ground_moment_1_mz	ground_force_2_vx	ground_force_2_vy	ground_force_2_vz	ground_force_2_px	ground_force_2_py	ground_force_2_pz	ground_moment_2_mx	ground_moment_2_my	ground_moment_2_mz	ground_force_3_vx	ground_force_3_vy	ground_force_3_vz	ground_force_3_px	ground_force_3_py	ground_force_3_pz	ground_moment_3_mx	ground_moment_3_my	ground_moment_3_mz	ground_force_4_vx	ground_force_4_vy	ground_force_4_vz	ground_force_4_px	ground_force_4_py	ground_force_4_pz	ground_moment_4_mx	ground_moment_4_my	ground_moment_4_mz
      3.68000000	      0.00000000	     -0.00000000	      0.00000000	      0.00000000	      0.00000000	      0.00000000	      0.00000000	      0.00000000	      0.00000000	     11.33526516	     -4.55117607	   -366.56793213	   -313.11939611	  -1092.28448184	      0.00000000	      0.00000000	      0.00000000	   8417.68693866	     -8.59884803	      3.53286818	   -400.86206055	   -287.43122466	   -743.53311546	      0.00000000	      0.00000000	     -0.00000000	 -13213.77514244	      0.00000000	     -0.00000000	      0.00000000	      0.00000000	      0.00000000	      0.00000000	      0.00000000	      0.00000000	      0.00000000
      3.69000000	      0.00000000	     -0.00000000	      0.00000000	      0.00000000	      0.00000000	      0.00000000	      0.00000000	      0.00000000	      0.00000000	     12.49211502	     -4.37003088	   -365.88394165	   -314.39856739	  -1091.95636495	      0.00000000	      0.00000000	      0.00000000	   8547.66956746	     -8.85350959	      3.53286821	   -399.47555542	   -287.27830970	   -746.34002028	      0.00000000	      0.00000000	     -0.00000000	 -13143.73917847	      0.00000000	     -0.00000000	      0.00000000	      0.00000000	      0.00000000	      0.00000000	      0.00000000	      0.00000000	      0.00000000
      3.70000000	      0.00000000	     -0.00000000	      0.00000000	      0.00000000	      0.00000000	      0.00000000	      0.00000000	      0.00000000	      0.00000000	     12.67542267	     -3.91922975	   -364.49163818	   -313.98385855	  -1091.29115291	      0.00000000	      0.00000000	      0.00000000	   8496.65788674	     -8.26407977	      3.17958141	   -400.13876343	   -286.51832571	   -744.46204899	      0.00000000	     -0.00000000	     -0.00000000	 -13249.29786743	      0.00000000	     -0.00000000	      0.00000000	      0.00000000	      0.00000000	      0.00000000	      0.00000000	      0.00000000	      0.00000000
      3.71000000	      0.00000000	     -0.00000000	      0.00000000	      0.00000000	      0.00000000	      0.00000000	      0.00000000	      0.00000000	      0.00000000	     13.12349987	     -4.26393986	   -364.47222900	   -315.00257104	  -1092.58169161	      0.00000000	     -0.00000000	      0.00000000	   8610.95728307	     -8.69900581	      3.08593373	   -400.12774658	   -286.84592719	   -744.77234513	      0.00000000	      0.00000000	     -0.00000000	 -12971.76371479	      0.00000000	     -0.00000000	      0.00000000	      0.00000000	      0.00000000	      0.00000000	      0.00000000	      0.00000000	      0.00000000
      3.72000000	      0.00000000	     -0.00000000	      0.00000000	      0.00000000	      0.00000000	      0.00000000	      0.00000000	      0.00000000	      0.00000000	     13.64236927	     -3.48064065	   -363.83850098	   -314.92615259	  -1092.18726080	      0.00000000	      0.00000000	      0.00000000	   8768.28386698	     -8.96492170	      2.90695150	   -399.76852417	   -286.41773467	   -744.58580695	      0.00000000	      0.00000000	     -0.00000000	 -13180.30210658	      0.00000000	     -0.00000000	      0.00000000	      0.00000000	      0.00000000	      0.00000000	      0.00000000	      0.00000000	      0.00000000
      3.73000000	      0.00000000	     -0.00000000	      0.00000000	      0.00000000	      0.00000000	      0.00000000	      0.00000000	      0.00000000	      0.00000000	     13.20531368	     -3.13034558	   -365.86022949	   -314.47055263	  -1093.57437873	      0.00000000	      0.00000000	      0.00000000	   8755.75621703	     -9.14699241	      3.09369453	   -398.75039673	   -285.83424467	   -744.97913565	      0.00000000	      0.00000000	     -0.00000000	 -13246.39088525	      0.00000000	     -0.00000000	      0.00000000	      0.00000000	      0.00000000	      0.00000000	      0.00000000	      0.00000000	      0.00000000
      3.74000000	      0.00000000	     -0.00000000	      0.00000000	      0.00000000	      0.00000000	      0.00000000	      0.00000000	      0.00000000	      0.00000000	     12.49352074	     -3.47406268	   -364.45764160	   -314.44066375	  -1092.44676262	      0.00000000	     -0.00000000	      0.00000000	   8759.21357503	     -9.49436641	      2.65425694	   -399.72399902	   -284.92446117	   -744.00579572	      0.00000000	     -0.00000000	     -0.00000000	 -12979.72790582	      0.00000000	     -0.00000000	      0.00000000	      0.00000000	      0.00000000	      0.00000000	      0.00000000	      0.00000000	      0.00000000
      3.75000000	      0.00000000	     -0.00000000	      0.00000000	      0.00000000	      0.00000000	      0.00000000	      0.00000000	      0.00000000	      0.00000000	     12.48566437	     -3.29592299	   -365.18804932	   -313.95322034	  -1092.76668999	      0.00000000	      0.00000000	      0.00000000	   8987.70274833	     -9.93341519	      2.55696455	   -400.11050415	   -284.99128015	   -743.72299791	      0.00000000	      0.00000000	     -0.00000000	 -12823.06267411	      0.00000000	     -0.00000000	      0.00000000	      0.00000000	      0.00000000	      0.00000000	      0.00000000	      0.00000000	      0.00000000
      3.76000000	      0.00000000	     -0.00000000	      0.00000000	      0.00000000	      0.00000000	      0.00000000	      0.00000000	      0.00000000	      0.00000000	     11.78475857	     -2.76304245	   -364.84201050	   -313.91490976	  -1091.88178385	      0.00000000	      0.00000000	      0.00000000	   8886.92518230	     -9.76026988	      2.73797311	   -400.11135864	   -284.96343542	   -743.39062705	      0.00000000	      0.00000000	     -0.00000000	 -12997.56480635	      0.00000000	     -0.00000000	      0.00000000	      0.00000000	      0.00000000	      0.00000000	      0.00000000	      0.00000000	      0.00000000
